<?xml version="1.0" standalone="no"?>
<!DOCTYPE svg PUBLIC "-//W3C//DTD SVG 20010904//EN"
 "http://www.w3.org/TR/2001/REC-SVG-20010904/DTD/svg10.dtd">
<svg version="1.0" xmlns="http://www.w3.org/2000/svg"
 width="300.000000pt" height="245.000000pt" viewBox="0 0 300.000000 245.000000"
 preserveAspectRatio="xMidYMid meet">

<g transform="translate(0.000000,245.000000) scale(0.100000,-0.100000)"
fill="#000000" stroke="none">
<path d="M830 2236 c-115 -25 -238 -123 -275 -220 l-17 -44 -90 -11 c-106 -14
-192 -41 -225 -73 -31 -29 -31 -73 2 -94 37 -24 130 -44 210 -44 l70 0 -5
-116 c-5 -126 -1 -116 -79 -174 -11 -8 -21 -24 -23 -35 -4 -26 53 -54 126 -62
51 -5 56 -8 61 -35 9 -40 52 -88 100 -109 33 -15 66 -19 194 -19 142 0 153 -1
146 -17 -27 -64 -34 -96 -35 -155 0 -37 4 -78 10 -93 8 -21 5 -35 -20 -79 -31
-54 -39 -113 -19 -133 7 -7 0 -29 -25 -74 -19 -35 -42 -83 -50 -106 -21 -59
-36 -180 -29 -230 5 -39 9 -44 42 -52 99 -25 365 -20 449 10 37 13 42 29 42
142 0 90 2 94 44 78 16 -6 19 -19 20 -80 1 -66 4 -76 26 -92 45 -34 214 -45
332 -23 22 4 27 1 30 -18 6 -44 46 -53 253 -56 230 -3 338 11 343 44 3 21 8
22 135 22 83 0 149 5 177 14 42 13 45 16 48 52 8 91 -75 260 -160 328 l-39 32
35 18 c19 10 37 27 41 38 10 32 -4 78 -31 99 -23 18 -24 25 -24 124 0 132 -14
243 -42 327 -21 63 -29 72 -247 291 -247 247 -275 267 -405 290 -96 16 -419 8
-466 -13 l-36 -15 -12 65 c-25 131 -77 204 -184 258 -95 48 -278 67 -398 40z
m215 -46 c189 -22 284 -102 314 -265 11 -56 15 -135 7 -135 -18 0 -87 32 -161
76 -130 77 -206 95 -427 101 -113 4 -178 9 -178 16 0 20 61 106 93 130 71 54
117 70 252 86 6 0 50 -4 100 -9z m-33 -299 c74 -19 144 -48 136 -56 -2 -2 -43
2 -90 10 -225 36 -406 28 -503 -22 -46 -24 -56 -25 -135 -19 -91 6 -156 21
-165 37 -10 16 78 49 172 64 133 22 482 14 585 -14z m906 -49 c9 -6 -7 -31
-58 -89 -38 -44 -70 -85 -70 -90 0 -5 38 -46 84 -91 65 -64 90 -82 112 -82 16
0 98 12 182 27 l153 27 66 -66 c57 -57 65 -69 54 -82 -14 -17 -8 -115 10 -178
11 -39 66 -98 91 -98 16 0 18 -11 18 -119 l0 -119 -76 -7 c-138 -13 -296 12
-412 67 -79 37 -187 137 -243 225 -22 36 -69 125 -104 198 -79 163 -129 228
-198 261 -51 23 -52 25 -74 95 -24 80 -23 91 13 107 l24 12 -6 -54 c-4 -30 -2
-56 3 -59 5 -3 54 -15 108 -26 118 -24 116 -25 201 79 58 70 86 84 122 62z
m-863 -51 c72 -11 176 -30 232 -42 l103 -22 25 -79 c47 -150 68 -332 45 -392
-7 -20 -6 -26 5 -26 15 0 31 44 43 120 l8 45 18 -45 c10 -25 21 -83 24 -130 7
-83 8 -85 35 -88 22 -3 27 1 27 20 1 15 13 -2 38 -52 54 -110 169 -222 282
-277 47 -23 122 -53 168 -67 77 -24 125 -34 277 -54 l60 -9 -50 -22 c-27 -13
-74 -32 -104 -42 -50 -18 -56 -18 -72 -3 -10 9 -23 32 -29 50 -8 23 -18 34
-30 34 -18 0 -18 -2 -3 -52 23 -79 49 -125 113 -204 59 -71 107 -150 97 -160
-21 -22 -397 -29 -450 -9 -15 6 -17 23 -17 136 0 92 -4 140 -15 165 -18 45
-41 40 -37 -7 4 -60 -3 -64 -150 -67 -214 -6 -342 32 -431 127 -64 68 -82 133
-73 260 4 53 8 105 9 116 0 11 -3 35 -7 53 -10 43 7 42 47 -3 36 -41 47 -44
47 -11 0 31 -29 66 -90 111 -49 36 -56 55 -22 55 31 0 92 21 92 31 0 7 -89 10
-267 8 -298 -4 -311 -1 -346 59 -11 18 -18 35 -16 37 2 1 108 7 234 12 202 8
235 12 270 30 44 23 82 60 72 70 -4 3 -15 -1 -24 -10 -38 -34 -80 -39 -351
-48 -245 -7 -362 -3 -380 16 -2 2 10 16 27 31 51 43 64 78 71 197 8 118 13
129 70 145 61 17 285 13 425 -7z m520 -277 c16 -21 60 -101 98 -178 108 -219
168 -305 270 -381 129 -98 272 -139 472 -137 72 1 146 3 165 5 29 2 35 -1 35
-18 0 -26 -63 -43 -162 -44 -221 -3 -485 83 -615 199 -71 64 -104 116 -184
291 -35 79 -84 169 -107 199 -26 33 -46 71 -50 93 l-6 37 28 -14 c15 -8 41
-32 56 -52z m-451 -401 c6 -44 3 -52 -31 -102 l-38 -55 -3 67 c-3 80 27 168
52 148 7 -6 16 -32 20 -58z m2 -180 c-25 -47 -116 -168 -116 -155 0 20 18 51
73 124 52 69 70 82 43 31z m48 -261 c20 -39 89 -108 128 -128 28 -14 28 -15
28 -119 l0 -104 -47 -8 c-27 -4 -117 -8 -201 -8 -175 0 -176 0 -167 80 15 135
54 225 156 365 l53 73 16 -59 c9 -33 24 -74 34 -92z m1420 -30 c59 -45 120
-143 137 -219 10 -45 10 -56 -1 -63 -24 -15 -157 -23 -237 -14 l-76 9 -35 50
c-20 28 -55 73 -79 100 -38 43 -41 51 -26 57 10 4 50 19 88 34 39 15 90 40
115 55 25 16 50 29 55 29 6 0 32 -17 59 -38z m-754 -222 c0 -57 -1 -60 -27
-67 -38 -10 -219 -10 -265 0 l-38 8 0 55 0 55 113 -6 c61 -3 132 -2 157 3 25
6 48 10 53 11 4 1 7 -26 7 -59z"/>
<path d="M1692 1627 c-32 -38 -31 -63 3 -146 33 -83 67 -131 92 -131 8 0 34
14 59 30 31 22 44 38 44 55 0 35 -153 205 -185 205 -1 0 -7 -6 -13 -13z"/>
<path d="M2140 1445 c-113 -13 -166 -33 -212 -82 -30 -31 -48 -71 -41 -91 8
-21 235 -213 270 -228 70 -30 122 -16 206 58 52 45 58 92 26 224 -21 86 -27
99 -54 116 -34 20 -46 20 -195 3z"/>
<path d="M2385 1051 c-84 -54 -132 -106 -116 -125 17 -21 230 -34 242 -15 12
17 1 149 -13 167 -18 21 -51 13 -113 -27z"/>
<path d="M694 1656 c-8 -34 4 -68 24 -64 19 4 26 29 18 64 -8 31 -34 31 -42 0z"/>
<path d="M994 1656 c-8 -34 4 -68 24 -64 19 4 26 29 18 64 -8 31 -34 31 -42 0z"/>
</g>
</svg>
